<svg version="1.1" xmlns="http://www.w3.org/2000/svg" viewBox="0 0 104.75 104.04296875" width="104.75" height="104.04296875">
  <!-- svg-source:excalidraw -->
  
  <defs>
    <style class="style-fonts">
      @font-face {
        font-family: "Virgil";
        src: url("https://excalidraw.com/Virgil.woff2");
      }
      @font-face {
        font-family: "Cascadia";
        src: url("https://excalidraw.com/Cascadia.woff2");
      }
    </style>
    
  </defs>
  <g stroke-linecap="round"><g transform="translate(15.34765625 92.26953125) rotate(0 18.62109375 -39.35546875)"><path d="M-1.03 -0.37 C5.49 -13.41, 31.8 -65.75, 38.14 -78.84 M0.64 -1.61 C7.16 -14.4, 31.74 -64.69, 37.66 -77.37" stroke="#1e1e1e" stroke-width="1" fill="none"></path></g></g><mask></mask><g stroke-linecap="round"><g transform="translate(88.234375 90.58984375) rotate(0 -35.9765625 0)"><path d="M0.76 0.13 C-11.44 0.01, -60.49 -0.58, -72.63 -0.46 M-0.3 -0.84 C-12.15 -0.82, -58.18 0.87, -70.27 0.83" stroke="#1e1e1e" stroke-width="1" fill="none"></path></g></g><mask></mask><g stroke-linecap="round"><g transform="translate(53.55078125 12.90625) rotate(0 17.169921875 0.17578125)"><path d="M-0.21 1.12 C5.51 1.06, 28.57 0.15, 34.38 -0.17 M-1.78 0.66 C3.79 0.74, 27.48 1.22, 33.45 1.1" stroke="#1e1e1e" stroke-width="1" fill="none"></path></g></g><mask></mask><g stroke-linecap="round"><g transform="translate(89.78515625 13.20703125) rotate(0 -3.552713678800501e-15 38.421875)"><path d="M0.61 -0.16 C0.78 12.66, 1 65.2, 0.74 77.93 M-0.52 -1.28 C-0.44 11.74, -0.15 63.29, 0.17 76.38" stroke="#1e1e1e" stroke-width="1" fill="none"></path></g></g><mask></mask><g stroke-linecap="round" transform="translate(47.8359375 10) rotate(0 4.681640625 3.630859375)"><path d="M3.63 1.01 C4.76 0.85, 6.99 0.11, 7.92 0.45 C8.85 0.78, 8.93 2.17, 9.2 3.03 C9.48 3.88, 10.13 4.78, 9.57 5.58 C9 6.38, 6.87 7.4, 5.83 7.82 C4.78 8.23, 4.08 8.57, 3.3 8.07 C2.52 7.57, 1.79 5.5, 1.14 4.83 C0.49 4.15, -0.8 4.51, -0.6 4.02 C-0.4 3.53, 1.45 2.61, 2.33 1.87 C3.21 1.12, 3.98 -0.05, 4.69 -0.47 C5.39 -0.88, 6.48 -0.7, 6.56 -0.62 M3.54 -0.76 C4.8 -0.97, 6.71 -1.09, 7.77 -0.55 C8.82 0, 9.54 1.56, 9.89 2.52 C10.23 3.48, 10.43 4.68, 9.83 5.21 C9.23 5.75, 7.19 5.43, 6.3 5.74 C5.41 6.05, 5.64 7.2, 4.5 7.08 C3.37 6.95, 0.03 5.69, -0.54 5.01 C-1.1 4.33, 0.6 3.4, 1.1 2.97 C1.59 2.54, 1.74 3.08, 2.41 2.44 C3.07 1.79, 4.91 -0.43, 5.08 -0.88 C5.25 -1.34, 3.72 -0.54, 3.42 -0.3" stroke="none" stroke-width="0" fill="#fa5252"></path><path d="M4.11 -0.32 C5.1 -0.48, 6.29 -0.76, 7.03 -0.08 C7.78 0.59, 8.15 2.79, 8.58 3.73 C9.02 4.67, 9.89 4.93, 9.65 5.57 C9.41 6.21, 8.14 7.28, 7.15 7.57 C6.16 7.86, 4.74 7.68, 3.7 7.3 C2.65 6.91, 1.43 6.12, 0.89 5.26 C0.35 4.4, 0.35 2.74, 0.44 2.12 C0.53 1.5, 0.79 1.76, 1.43 1.54 C2.06 1.32, 3.64 0.92, 4.22 0.8 C4.81 0.69, 4.88 0.92, 4.92 0.83 M5.19 -1.13 C5.8 -0.99, 7.6 1.21, 8.34 2 C9.09 2.8, 9.58 2.86, 9.67 3.63 C9.76 4.4, 9.56 5.8, 8.88 6.61 C8.19 7.43, 6.93 8.32, 5.58 8.53 C4.22 8.73, 1.54 8.63, 0.74 7.85 C-0.06 7.08, 0.79 4.81, 0.79 3.87 C0.8 2.93, 0.28 3, 0.77 2.2 C1.26 1.39, 2.58 -0.83, 3.72 -0.97 C4.86 -1.12, 7.37 1.05, 7.63 1.32 C7.89 1.58, 5.73 0.71, 5.28 0.62" stroke="#e03131" stroke-width="1" fill="none"></path></g><g stroke-linecap="round" transform="translate(85.38671875 10.75) rotate(0 4.681640625 3.630859375)"><path d="M3.64 0.31 C4.64 0.37, 6.11 0.69, 6.94 1.06 C7.78 1.42, 8.17 1.83, 8.67 2.51 C9.17 3.19, 10.21 4.61, 9.95 5.15 C9.7 5.7, 8.19 5.43, 7.14 5.77 C6.08 6.11, 4.61 7.17, 3.62 7.19 C2.63 7.21, 1.94 6.53, 1.19 5.88 C0.45 5.22, -0.9 4.13, -0.83 3.24 C-0.77 2.36, 0.51 1.17, 1.59 0.55 C2.67 -0.06, 4.91 -0.54, 5.64 -0.46 C6.37 -0.38, 6.14 0.8, 5.98 1.05 M3.14 -0.24 C3.89 -0.53, 4.9 0.59, 5.78 0.71 C6.67 0.83, 7.86 -0.3, 8.46 0.46 C9.06 1.23, 9.52 4.47, 9.38 5.31 C9.24 6.15, 8.34 4.97, 7.63 5.52 C6.93 6.07, 6.06 8.43, 5.15 8.6 C4.24 8.76, 2.8 7, 2.19 6.49 C1.58 5.99, 1.79 6.29, 1.48 5.56 C1.18 4.83, -0.08 3.08, 0.34 2.11 C0.76 1.13, 3.5 0.12, 4.01 -0.3 C4.52 -0.71, 3.66 -0.57, 3.41 -0.37" stroke="none" stroke-width="0" fill="#228be6"></path><path d="M5.44 0.04 C6.57 0.35, 9.02 0.96, 9.7 1.78 C10.39 2.6, 9.91 4.34, 9.54 4.95 C9.17 5.56, 8.31 5.16, 7.49 5.44 C6.67 5.71, 5.54 6.34, 4.62 6.58 C3.71 6.82, 2.8 7.42, 2 6.87 C1.19 6.33, 0.04 4.05, -0.2 3.3 C-0.45 2.54, 0.08 2.77, 0.51 2.35 C0.94 1.93, 1.52 1.12, 2.37 0.78 C3.21 0.43, 4.75 0.3, 5.55 0.27 C6.36 0.24, 7.2 0.54, 7.2 0.6 M6.95 1.3 C7.8 1.88, 7.45 2.03, 7.9 2.48 C8.35 2.93, 9.69 3.42, 9.65 4.01 C9.61 4.59, 8.35 5.48, 7.67 5.99 C6.98 6.5, 6.59 6.81, 5.55 7.08 C4.51 7.35, 2.18 8.21, 1.43 7.62 C0.68 7.02, 1.13 4.66, 1.04 3.5 C0.96 2.34, 0.28 1.37, 0.91 0.66 C1.53 -0.04, 3.66 -0.44, 4.79 -0.72 C5.93 -1.01, 7.17 -1.07, 7.71 -1.04 C8.26 -1.01, 8.22 -1.06, 8.04 -0.53" stroke="#1971c2" stroke-width="1" fill="none"></path></g><g stroke-linecap="round" transform="translate(85.16015625 86.78125) rotate(0 4.681640625 3.630859375)"><path d="M7.02 -0.03 C7.91 0.23, 7.71 0.99, 8.07 1.72 C8.43 2.46, 9.18 3.44, 9.18 4.36 C9.18 5.29, 8.83 6.72, 8.06 7.27 C7.28 7.81, 5.53 7.82, 4.53 7.63 C3.53 7.44, 2.67 6.68, 2.08 6.13 C1.48 5.58, 1.08 5.07, 0.98 4.32 C0.88 3.58, 1.12 2.34, 1.48 1.67 C1.85 1, 2.12 0.58, 3.2 0.28 C4.28 -0.02, 7.05 -0.15, 7.95 -0.15 C8.84 -0.15, 8.82 0.26, 8.59 0.28 M3.3 1.29 C4.45 0.94, 6.86 0.09, 7.65 0.22 C8.44 0.35, 7.92 1.4, 8.05 2.09 C8.19 2.77, 8.73 3.39, 8.46 4.33 C8.19 5.28, 7.17 7.19, 6.45 7.77 C5.72 8.34, 5.1 7.98, 4.11 7.8 C3.11 7.61, 1.38 7.24, 0.47 6.66 C-0.44 6.07, -1.43 5.25, -1.36 4.28 C-1.28 3.3, 0 1.71, 0.93 0.83 C1.86 -0.05, 4.09 -0.9, 4.25 -1.02 C4.41 -1.13, 2.23 0.11, 1.88 0.15" stroke="none" stroke-width="0" fill="#12b886"></path><path d="M3.42 1.19 C4.11 1.07, 5.38 0.75, 6.11 0.87 C6.83 1, 7.21 1.37, 7.77 1.96 C8.32 2.55, 9.5 3.7, 9.44 4.42 C9.39 5.13, 8.13 5.78, 7.44 6.25 C6.74 6.72, 6.31 7.18, 5.25 7.22 C4.19 7.27, 1.8 7.03, 1.09 6.52 C0.39 6.01, 1.19 4.91, 1.02 4.15 C0.85 3.4, -0.49 2.63, 0.09 1.97 C0.68 1.32, 3.83 0.39, 4.53 0.22 C5.23 0.05, 4.33 0.94, 4.3 0.96 M5.36 -0.78 C6.03 -0.68, 6.81 0.41, 7.3 1.08 C7.79 1.75, 7.92 2.5, 8.3 3.22 C8.69 3.94, 9.78 4.8, 9.61 5.4 C9.44 6.01, 8.41 6.66, 7.31 6.86 C6.21 7.06, 3.88 6.67, 3.02 6.59 C2.15 6.52, 2.64 7.24, 2.1 6.42 C1.56 5.6, 0.07 2.48, -0.22 1.69 C-0.51 0.89, -0.33 2.16, 0.35 1.65 C1.03 1.15, 3.05 -1, 3.87 -1.34 C4.69 -1.68, 5.21 -0.57, 5.26 -0.38" stroke="#2f9e44" stroke-width="1" fill="none"></path></g><g stroke-linecap="round" transform="translate(10 86.42578125) rotate(0 4.681640625 3.630859375)"><path d="M4.37 0.63 C5.15 0.31, 5.89 0.14, 6.79 0.4 C7.69 0.67, 9.53 1.38, 9.77 2.23 C10.01 3.08, 8.61 4.57, 8.24 5.48 C7.87 6.39, 8.38 7.56, 7.54 7.71 C6.71 7.85, 4.43 6.58, 3.23 6.35 C2.04 6.12, 0.81 6.84, 0.4 6.34 C-0.02 5.83, 0.5 4.29, 0.76 3.34 C1.01 2.39, 1.08 1.23, 1.92 0.65 C2.75 0.06, 5.25 -0.24, 5.76 -0.17 C6.28 -0.1, 5.12 1.07, 5 1.08 M2.16 0.71 C2.93 0.73, 5.29 0.24, 6.41 0.54 C7.54 0.85, 8.51 1.91, 8.9 2.54 C9.29 3.18, 8.77 3.52, 8.76 4.34 C8.75 5.16, 9.37 6.75, 8.82 7.45 C8.27 8.16, 6.6 8.86, 5.44 8.57 C4.28 8.27, 2.72 6.44, 1.88 5.67 C1.04 4.9, 0.65 4.86, 0.41 3.95 C0.18 3.04, 0.02 0.84, 0.47 0.22 C0.92 -0.41, 2.56 0.31, 3.13 0.21 C3.7 0.1, 3.98 -0.46, 3.89 -0.41" stroke="none" stroke-width="0" fill="#7950f2"></path><path d="M6.04 0.5 C6.99 0.6, 7.96 1.35, 8.45 1.88 C8.93 2.41, 8.95 2.99, 8.95 3.67 C8.95 4.35, 9.01 5.24, 8.44 5.97 C7.87 6.71, 6.59 8.05, 5.52 8.1 C4.46 8.15, 2.92 6.78, 2.04 6.26 C1.16 5.74, 0.59 5.66, 0.24 4.98 C-0.11 4.29, -0.35 3.02, -0.08 2.15 C0.19 1.28, 0.85 0.02, 1.86 -0.22 C2.86 -0.46, 5.29 0.7, 5.97 0.71 C6.65 0.72, 5.97 -0.13, 5.94 -0.16 M4.8 -0.79 C5.74 -1.31, 6.59 -1.12, 7.48 -0.62 C8.36 -0.12, 9.71 1.47, 10.11 2.19 C10.51 2.9, 10.09 3.1, 9.86 3.69 C9.63 4.28, 9.81 5.14, 8.72 5.72 C7.63 6.3, 4.55 6.94, 3.32 7.17 C2.08 7.41, 1.61 7.54, 1.29 7.13 C0.98 6.73, 1.51 5.65, 1.41 4.74 C1.3 3.83, 0.1 2.23, 0.67 1.65 C1.25 1.07, 4.43 1.76, 4.88 1.28 C5.33 0.8, 3.69 -1.14, 3.38 -1.24" stroke="#6741d9" stroke-width="1" fill="none"></path></g></svg>